<svg width="49" height="45" viewBox="0 0 49 45" fill="none" xmlns="http://www.w3.org/2000/svg">
<path d="M33.777 17.0986C33.359 17.2156 32.9777 17.4372 32.6692 17.7425C32.3607 18.0479 32.1352 18.4268 32.014 18.8436C31.8446 19.283 31.7762 19.7549 31.8137 20.2243C31.8513 20.6938 31.9939 21.1487 32.231 21.5556L36.079 21.3556C36.0612 20.7493 36.2645 20.1572 36.651 19.6896L33.777 17.0986Z" fill="#DC1866"/>
<path d="M44.16 11.3949C43.6725 11.3448 43.184 11.4802 42.7919 11.7741C42.3997 12.0681 42.1327 12.4989 42.044 12.9809C41.831 13.9279 42.593 14.0569 42.55 15.4319C42.4641 16.1971 42.1549 16.9201 41.661 17.5109C41.661 17.5109 42.169 15.0439 41.361 14.3579C40.8771 13.9313 40.2832 13.6489 39.6468 13.5429C39.0105 13.4368 38.3571 13.5113 37.761 13.7579C38.0017 13.4301 38.3235 13.1704 38.6948 13.0044C39.0661 12.8384 39.4742 12.7717 39.879 12.8109C40.2022 12.7875 40.5112 12.6692 40.7674 12.4709C41.0236 12.2725 41.2155 12.0029 41.319 11.6959C41.4155 11.3686 41.6013 11.0747 41.8558 10.8474C42.1102 10.62 42.423 10.4681 42.759 10.4089C43.359 8.1839 40.689 4.8479 37.667 5.0989C37.656 6.6539 35.82 7.5729 35.82 7.5729C36.836 6.8859 36.72 5.1169 36.72 5.1169C36.1843 4.10304 35.3854 3.25223 34.4071 2.65394C33.4289 2.05564 32.3076 1.73195 31.161 1.7169C30.2144 1.69416 29.2781 1.9167 28.443 2.3629C27.927 2.7629 27.666 3.2579 27.899 4.3899C28.1309 5.05983 28.5745 5.63612 29.1628 6.03174C29.751 6.42735 30.4521 6.62081 31.16 6.5829C30.6775 6.7901 30.1482 6.86378 29.6274 6.79623C29.1067 6.72867 28.6137 6.52236 28.2 6.1989C26.594 5.0839 26.678 4.5679 25.492 4.9529C24.5622 5.29785 23.7023 5.80806 22.954 6.4589C23.5394 5.68097 24.291 5.04347 25.154 4.5929C26.424 4.0079 26.891 3.7579 26.891 3.7579C26.7638 3.34675 26.7739 2.90535 26.9199 2.50048C27.0659 2.09561 27.3397 1.74929 27.7 1.5139C26.5951 0.607536 25.2275 0.08152 23.8 0.0138955C22.7403 -0.0696562 21.6854 0.225525 20.823 0.846896C19.4861 1.84164 18.5817 3.31122 18.296 4.9529C17.9991 4.09718 17.9886 3.16812 18.266 2.3059C16.781 1.81888 15.2288 1.56815 13.666 1.5629C10.1934 1.59161 6.85999 2.93202 4.33421 5.31537C1.80843 7.69871 0.277001 10.9488 0.047 14.4139C0.047 14.6809 0.109 15.7349 1.147 15.7349C2.798 15.7349 3.553 14.2279 3.984 13.5869C4.13561 13.3262 4.34329 13.1025 4.59199 12.932C4.8407 12.7615 5.12421 12.6484 5.422 12.6009C4.9573 12.8874 4.60888 13.329 4.43833 13.8477C4.26778 14.3663 4.28608 14.9285 4.49 15.4349C4.71635 16.0471 5.06116 16.6088 5.50471 17.0877C5.94826 17.5666 6.48186 17.9534 7.075 18.2259C7.075 18.2259 5.549 18.6969 3.39 16.0799C2.89569 16.5849 2.23301 16.8906 1.528 16.9389C0.512 16.9389 0.198 16.7389 0.028 18.2819C0.013 18.4139 0 18.5529 0 18.6909C0 22.4619 3.357 25.5199 7.5 25.5199C7.728 25.5199 7.954 25.5089 8.174 25.4879C8.36286 24.4683 8.89506 23.5441 9.68209 22.869C10.4691 22.1938 11.4635 21.8084 12.5 21.7769C11.9077 21.9423 11.3618 22.2425 10.9048 22.654C10.4479 23.0655 10.0923 23.5771 9.866 24.1489C9.64522 24.6776 9.56234 25.2537 9.62513 25.8232C9.68792 26.3928 9.89433 26.937 10.225 27.4049C10.9592 28.3041 11.8867 29.0263 12.9384 29.5178C13.9902 30.0093 15.1392 30.2575 16.3 30.2439C17.9964 30.2531 19.6508 29.7174 21.02 28.7159C21.02 28.7159 19.897 27.8379 20.363 25.5649C20.363 25.5649 20.871 27.6649 22.311 28.0119C23.751 28.3589 25.611 27.2819 27.859 30.2849C27.2349 29.819 26.525 29.4808 25.7699 29.2898C25.0149 29.0988 24.2296 29.0588 23.459 29.1719C22.7622 29.284 22.0874 29.5047 21.459 29.8259C22.4885 31.9597 24.3117 33.6063 26.539 34.4139C27.6671 34.8476 28.872 35.0463 30.0796 34.9979C31.2873 34.9494 32.4723 34.6547 33.562 34.1319C33.2695 33.3241 33.217 32.4489 33.411 31.6119C33.6733 32.441 34.2024 33.1601 34.9159 33.6571C35.6295 34.1542 36.4874 34.4013 37.356 34.3599C39.0747 34.2668 40.6869 33.4979 41.841 32.2209C42.1876 31.8752 42.4003 31.4177 42.441 30.9299C42.462 30.3079 42.198 29.4469 40.485 29.7639C39.6618 29.8502 38.8746 30.1467 38.199 30.6249C38.5605 29.8822 39.1989 29.311 39.977 29.0339C41.288 28.5629 41.415 26.1999 40.61 24.3529C41.3991 25.1634 41.8789 26.225 41.966 27.3529C41.9551 27.8128 41.9832 28.2728 42.05 28.7279C42.3813 28.8918 42.676 29.1209 42.9166 29.4016C43.1572 29.6822 43.3386 30.0085 43.45 30.3609C44.4241 30.2553 45.3355 29.8289 46.041 29.1489C50.124 25.2539 49.841 16.2249 45.791 12.1679C45.5837 11.9377 45.3328 11.7508 45.0529 11.6181C44.7729 11.4854 44.4695 11.4096 44.16 11.3949ZM38.394 21.9949C36.2703 22.2977 34.1282 22.4538 31.983 22.4619L14.3 16.0829C13.859 15.5883 13.5644 14.9806 13.4493 14.328C13.3341 13.6754 13.4029 13.0036 13.648 12.3879C13.8415 11.7532 14.2075 11.1849 14.7053 10.7462C15.2031 10.3076 15.813 10.016 16.467 9.9039L34.15 16.2869C34.15 16.2869 38.366 20.2449 38.691 20.6169C39.016 20.9889 39.14 21.8639 38.394 21.9949Z" fill="#DC1866"/>
<path d="M37.316 36.2539C36.6892 36.2612 36.0889 36.5075 35.6374 36.9423C35.186 37.3772 34.9175 37.9679 34.8868 38.594C34.856 39.2201 35.0653 39.8343 35.472 40.3113C35.8786 40.7883 36.452 41.0922 37.075 41.1609C37.155 41.1707 37.2355 41.1757 37.316 41.1759C37.3952 41.1757 37.4744 41.1707 37.553 41.1609C38.1758 41.0923 38.749 40.7888 39.1557 40.3122C39.5624 39.8356 39.772 39.2218 39.7418 38.596C39.7115 37.9702 39.4438 37.3794 38.993 36.9442C38.5423 36.509 37.9425 36.2621 37.316 36.2539Z" fill="#DC1866"/>
<path d="M42.2853 44.8429C42.6375 44.8476 42.9831 44.7475 43.2783 44.5554C43.5735 44.3632 43.8048 44.0875 43.943 43.7635C44.0811 43.4395 44.1198 43.0817 44.0541 42.7357C43.9884 42.3896 43.8212 42.0709 43.5739 41.8201C43.3266 41.5693 43.0103 41.3977 42.6653 41.3271C42.3202 41.2565 41.9619 41.2901 41.636 41.4236C41.31 41.5571 41.0311 41.7846 40.8348 42.077C40.6384 42.3694 40.5335 42.7136 40.5333 43.0659C40.5315 43.2976 40.5755 43.5274 40.6626 43.7421C40.7498 43.9569 40.8784 44.1523 41.0411 44.3174C41.2038 44.4824 41.3974 44.6137 41.6109 44.7039C41.8244 44.7941 42.0535 44.8413 42.2853 44.8429Z" fill="#DC1866"/>
</svg>
